<svg xmlns="http://www.w3.org/2000/svg" viewBox="0 0 512 512">
  <defs>
    <linearGradient id="bg" x1="0" y1="0" x2="1" y2="1">
      <stop offset="0%" stop-color="#0d9488"/>
      <stop offset="100%" stop-color="#0f766e"/>
    </linearGradient>
  </defs>
  <rect width="512" height="512" rx="96" fill="url(#bg)"/>
  <!-- S -->
  <path d="M148 210c0-40 32-68 80-68 44 0 74 24 76 58h-44c-2-16-14-26-32-26-20 0-34 12-34 32 0 18 12 28 38 36l22 6c46 14 66 38 66 76 0 44-34 74-84 74-48 0-80-26-82-64h46c2 20 16 32 38 32 22 0 36-14 36-36 0-20-12-30-40-38l-22-8c-42-14-64-36-64-74z" fill="white"/>
  <!-- T -->
  <path d="M280 142h148v38h-52v196h-44V180h-52v-38z" fill="white"/>
</svg>
